<?xml version="1.0" encoding="utf-8"?>
<!-- Generator: Adobe Illustrator 23.0.3, SVG Export Plug-In . SVG Version: 6.00 Build 0)  -->
<svg version="1.1" id="Layer_1" xmlns="http://www.w3.org/2000/svg" xmlns:xlink="http://www.w3.org/1999/xlink" x="0px" y="0px"
	 viewBox="0 0 1154.5 271.2" style="enable-background:new 0 0 1154.5 271.2;" xml:space="preserve">
<path d="M428.5,106.1c0,39.9-26.5,73.5-62.8,84.4c-8,2.4-16.5,3.7-25.3,3.7H151.4c-16.2,0-29.4-13.1-29.4-29.4h215.6
	c32.7,0,59.1-26.5,59.1-59.1c0-29.3-21.3-53.6-49.3-58.3H153.1c-14.4,3-18.6,12.2-18.6,12.2V47.4h-0.4c0-8.1,3.3-15.4,8.6-20.8
	c5.3-5.3,12.7-8.6,20.8-8.6h176.9c8.8,0,17.3,1.3,25.3,3.7C402,32.5,428.5,66.2,428.5,106.1z"/>
<path d="M365.7,96.3H72.9c-16.2,0-29.4-13.1-29.4-29.4h292.8C352.6,66.9,365.7,80.1,365.7,96.3z"/>
<path d="M365.7,115.9c0,8.1-3.3,15.4-8.6,20.8c-5.3,5.3-12.7,8.6-20.8,8.6H113.1c-16.2,0-29.4-13.1-29.4-29.4H365.7z"/>
<g>
	<path d="M464.9,189.3c-9-4.7-16-11.3-21-19.6c-5.1-8.4-7.6-17.9-7.6-28.5c0-10.6,2.5-20.1,7.6-28.5c5.1-8.4,12.1-14.9,21-19.6
		c9-4.7,19.1-7.1,30.4-7.1c11.3,0,21.4,2.4,30.3,7.1c8.9,4.7,15.9,11.3,20.9,19.6c5.1,8.4,7.6,17.9,7.6,28.5
		c0,10.6-2.5,20.1-7.6,28.5c-5.1,8.4-12,14.9-20.9,19.6c-8.9,4.7-19,7.1-30.3,7.1C484,196.3,473.9,194,464.9,189.3z M515,162.7
		c5.1-5.4,7.7-12.6,7.7-21.6c0-9-2.6-16.3-7.7-21.6c-5.1-5.4-11.7-8.1-19.6-8.1c-8,0-14.6,2.7-19.7,8.1c-5.2,5.4-7.8,12.6-7.8,21.6
		c0,9,2.6,16.3,7.8,21.6c5.2,5.4,11.8,8.1,19.7,8.1C503.3,170.8,509.9,168.1,515,162.7z"/>
	<path d="M678.4,87.4l-45.3,107.3H601L556,87.4h32.1l29.7,73l30.7-73H678.4z"/>
	<path d="M792.7,149.9h-81.2c1.5,6.7,4.9,11.9,10.4,15.8c5.5,3.9,12.2,5.8,20.3,5.8c5.6,0,10.5-0.8,14.9-2.5
		c4.3-1.7,8.3-4.3,12.1-7.9l16.6,18c-10.1,11.6-24.9,17.4-44.3,17.4c-12.1,0-22.8-2.4-32.1-7.1c-9.3-4.7-16.5-11.3-21.5-19.6
		c-5.1-8.4-7.6-17.9-7.6-28.5c0-10.5,2.5-20,7.5-28.4c5-8.4,11.8-15,20.5-19.7c8.7-4.7,18.4-7.1,29.2-7.1c10.5,0,20,2.3,28.5,6.8
		c8.5,4.5,15.2,11,20,19.4c4.9,8.4,7.3,18.2,7.3,29.4C793.3,141.9,793.1,144.7,792.7,149.9z M719.9,115.4c-4.8,4-7.7,9.4-8.8,16.4
		H764c-1.1-6.8-4-12.2-8.8-16.3c-4.8-4.1-10.6-6.1-17.6-6.1C730.6,109.4,724.7,111.4,719.9,115.4z"/>
	<path d="M883.2,189.6c-3.1,2.3-6.8,4-11.3,5.1c-4.5,1.1-9.1,1.7-14.1,1.7c-12.8,0-22.6-3.3-29.6-9.8c-7-6.5-10.5-16.1-10.5-28.7
		v-44.1h-16.6V89.8h16.6V63.7h31.1v26.1h26.7v23.9h-26.7v43.7c0,4.5,1.2,8,3.5,10.5c2.3,2.5,5.6,3.7,9.9,3.7c4.9,0,9.1-1.3,12.6-4
		L883.2,189.6z"/>
	<path d="M982.4,97.7c8.9,7.9,13.4,19.8,13.4,35.8v61.2h-29.1v-13.4c-5.9,10-16.8,15-32.7,15c-8.2,0-15.4-1.4-21.4-4.2
		c-6.1-2.8-10.7-6.6-13.9-11.6c-3.2-4.9-4.8-10.5-4.8-16.8c0-10,3.8-17.8,11.3-23.5c7.5-5.7,19.1-8.6,34.8-8.6h24.7
		c0-6.8-2.1-12-6.2-15.7c-4.1-3.7-10.3-5.5-18.5-5.5c-5.7,0-11.3,0.9-16.9,2.7c-5.5,1.8-10.2,4.2-14.1,7.3l-11.2-21.7
		c5.8-4.1,12.9-7.3,21-9.6c8.2-2.3,16.6-3.4,25.2-3.4C960.7,85.9,973.5,89.8,982.4,97.7z M955.8,171.7c4.1-2.5,7-6.1,8.8-10.9v-11
		h-21.3c-12.8,0-19.1,4.2-19.1,12.6c0,4,1.6,7.1,4.7,9.5c3.1,2.3,7.4,3.5,12.9,3.5C947,175.4,951.7,174.2,955.8,171.7z"/>
	<path d="M1025.4,67.5c-3.6-3.3-5.4-7.4-5.4-12.4c0-4.9,1.8-9,5.4-12.4c3.6-3.3,8.2-5,14-5c5.7,0,10.4,1.6,14,4.8
		c3.6,3.2,5.4,7.2,5.4,12c0,5.2-1.8,9.5-5.4,12.9c-3.6,3.4-8.2,5.1-14,5.1C1033.7,72.5,1029,70.8,1025.4,67.5z M1023.9,87.4h31.1
		v107.3h-31.1V87.4z"/>
	<path d="M1083.9,46.8h31.1v148h-31.1V46.8z"/>
</g>
<g>
	<path d="M990.7,249.8c-3.3-1.7-5.9-4.1-7.7-7.1c-1.8-3-2.8-6.5-2.8-10.3c0-3.8,0.9-7.3,2.8-10.3c1.8-3,4.4-5.4,7.7-7.1
		c3.3-1.7,7-2.6,11.1-2.6c4.1,0,7.6,0.9,10.7,2.6c3,1.7,5.3,4.1,6.7,7.3l-8.7,4.7c-2-3.6-4.9-5.3-8.7-5.3c-2.9,0-5.4,1-7.3,2.9
		c-1.9,1.9-2.9,4.5-2.9,7.8s1,5.9,2.9,7.8s4.3,2.9,7.3,2.9c3.8,0,6.7-1.8,8.7-5.3l8.7,4.8c-1.4,3.1-3.6,5.5-6.7,7.2
		c-3,1.7-6.6,2.6-10.7,2.6C997.7,252.3,994,251.5,990.7,249.8z"/>
	<path d="M1041.8,213.9c2.3-1,4.9-1.4,7.9-1.4v10.4c-1.2-0.1-2.1-0.1-2.5-0.1c-3.2,0-5.7,0.9-7.6,2.7c-1.8,1.8-2.7,4.5-2.7,8.1v18.3
		h-11.2V213h10.7v5.1C1037.7,216.3,1039.5,214.8,1041.8,213.9z"/>
	<path d="M1117.6,216.7c2.9,2.9,4.3,7.1,4.3,12.9v22.2h-11.2v-20.4c0-3.1-0.6-5.4-1.9-6.9c-1.3-1.5-3.1-2.3-5.4-2.3
		c-2.6,0-4.7,0.9-6.3,2.6c-1.5,1.7-2.3,4.2-2.3,7.6v19.4h-11.2v-20.4c0-6.1-2.4-9.1-7.3-9.1c-2.6,0-4.7,0.9-6.2,2.6
		c-1.5,1.7-2.3,4.2-2.3,7.6v19.4h-11.2V213h10.7v4.5c1.4-1.6,3.2-2.9,5.3-3.7c2.1-0.9,4.4-1.3,6.9-1.3c2.7,0,5.2,0.5,7.4,1.6
		c2.2,1.1,4,2.7,5.3,4.7c1.6-2,3.6-3.6,6-4.7c2.4-1.1,5.1-1.7,8-1.7C1110.9,212.4,1114.7,213.9,1117.6,216.7z"/>
</g>
</svg>
